<svg width="38" height="37" viewBox="0 0 38 37" fill="none" xmlns="http://www.w3.org/2000/svg">
<rect x="0.5" width="37" height="37" rx="18.5" fill="#F53838" fill-opacity="0.1"/>
<path d="M29 22.69C29 26.33 26.83 28.5 23.19 28.5H22C21.45 28.5 21 28.05 21 27.5V21.73C21 21.46 21.22 21.23 21.49 21.23L23.25 21.2C23.39 21.19 23.51 21.09 23.54 20.95L23.89 19.04C23.92 18.86 23.78 18.69 23.59 18.69L21.46 18.72C21.18 18.72 20.96 18.5 20.95 18.23L20.91 15.78C20.91 15.62 21.04 15.48 21.21 15.48L23.61 15.44C23.78 15.44 23.91 15.31 23.91 15.14L23.87 12.74C23.87 12.57 23.74 12.44 23.57 12.44L20.87 12.48C19.21 12.51 17.89 13.87 17.92 15.53L17.97 18.28C17.98 18.56 17.76 18.78 17.48 18.79L16.28 18.81C16.11 18.81 15.98 18.94 15.98 19.11L16.01 21.01C16.01 21.18 16.14 21.31 16.31 21.31L17.51 21.29C17.79 21.29 18.01 21.51 18.02 21.78L18.11 27.48C18.12 28.04 17.67 28.5 17.11 28.5H14.81C11.17 28.5 9 26.33 9 22.68V14.31C9 10.67 11.17 8.5 14.81 8.5H23.19C26.83 8.5 29 10.67 29 14.31V22.69Z" fill="#F53838"/>
</svg>
